<?xml version="1.0" encoding="UTF-8"?>
<svg version="1.1" xmlns="http://www.w3.org/2000/svg" width="512" height="512">
<path d="M0 0 C1.64745493 -0.00461529 3.29490573 -0.0109724 4.942348 -0.01890898 C9.44559967 -0.03553928 13.94851035 -0.02738474 18.45176291 -0.0149641 C23.31756076 -0.00589004 28.18330119 -0.01989501 33.04908752 -0.03088379 C42.57175522 -0.04864847 52.09429663 -0.04483816 61.61696923 -0.03323323 C69.35785146 -0.02419111 77.09869835 -0.02297828 84.83958435 -0.02732849 C85.94228714 -0.02794142 87.04498994 -0.02855436 88.18110797 -0.02918586 C90.42139106 -0.03046479 92.66167414 -0.03176165 94.90195721 -0.03307623 C115.89758075 -0.04447602 136.89313437 -0.03137773 157.88874644 -0.00987476 C175.89481942 0.00799566 193.90078924 0.00489138 211.90686035 -0.0135498 C232.82855378 -0.03496711 253.75018597 -0.04337744 274.67188883 -0.03110075 C276.90382289 -0.02982658 279.13575696 -0.0285691 281.36769104 -0.02732849 C283.01482199 -0.02640284 283.01482199 -0.02640284 284.69522831 -0.02545848 C292.42471777 -0.02200817 300.1541683 -0.02782707 307.88365173 -0.0372467 C317.30632212 -0.0484776 326.72885925 -0.04540364 336.15151441 -0.02412373 C340.95696047 -0.01362806 345.76218455 -0.00946621 350.56762886 -0.02272034 C354.97069355 -0.03468076 359.37333147 -0.02802177 363.77635771 -0.00681013 C365.36503892 -0.0023595 366.95375653 -0.00457557 368.54241413 -0.01431328 C383.62755735 -0.09965078 395.11406113 3.36349794 406.2911377 13.75793457 C417.4304922 25.49035656 421.96961416 41.23570539 421.82827759 57.07789612 C421.82842546 57.9866389 421.82857334 58.89538168 421.8287257 59.83166212 C421.82701129 62.84762748 421.81120138 65.86334994 421.79553223 68.87927246 C421.79173011 71.05330764 421.78892334 73.22734476 421.78703308 75.40138245 C421.78160439 80.06882855 421.77063722 84.73621728 421.75577164 89.40364265 C421.73378377 96.78742433 421.73339271 104.1711088 421.73764038 111.55491638 C421.73883359 114.08661364 421.7400026 116.61831092 421.74114799 119.1500082 C421.74172825 120.41740459 421.7423085 121.68480098 421.74290633 122.99060333 C421.74892621 140.17037443 421.7364757 157.34997119 421.68273926 174.52966309 C421.64661501 186.13405611 421.63884909 197.73809714 421.66323745 209.34252542 C421.67492155 215.47815064 421.67184863 221.61298737 421.63373184 227.7485218 C421.59800538 233.51666536 421.59936297 239.2836119 421.62896156 245.05177879 C421.63317942 247.1653132 421.62376346 249.27892662 421.59953499 251.39232635 C420.99595646 264.14934512 420.99595646 264.14934512 426.53915405 275.08555603 C427.24971388 275.68278693 427.9602737 276.28001783 428.69236565 276.89534664 C432.37088272 279.9990033 433.30709869 284.10173235 433.8770752 288.72668457 C434.14036393 294.64055468 433.1585339 300.51278788 429.2208252 305.12902832 C428.74902832 305.62531738 428.27723145 306.12160645 427.7911377 306.63293457 C427.0692627 307.58168457 426.3473877 308.53043457 425.6036377 309.50793457 C425.9344755 312.43321683 425.9344755 312.43321683 427.6036377 315.50793457 C428.32286872 317.25348401 429.03052513 319.00383225 429.7286377 320.75793457 C430.25844238 322.03410645 430.25844238 322.03410645 430.7989502 323.33605957 C431.6036377 325.50793457 431.6036377 325.50793457 431.6036377 327.50793457 C433.3361377 327.41512207 433.3361377 327.41512207 435.1036377 327.32043457 C441.94657328 327.33254596 447.68464931 329.72558475 452.6036377 334.50793457 C458.0240606 341.88573241 457.85112342 348.15555132 457.89880371 356.9666748 C457.91029084 358.44366053 457.93069097 359.92060582 457.96032715 361.39733887 C458.14700976 370.70539629 458.27220039 378.09783283 451.85754395 385.53137207 C445.05357776 390.9682596 440.2566902 391.81037136 431.6036377 391.50793457 C431.42187988 392.12539551 431.24012207 392.74285645 431.05285645 393.37902832 C430.80148926 394.22594238 430.55012207 395.07285645 430.2911377 395.94543457 C430.02816895 396.85809082 429.7652002 397.77074707 429.4942627 398.71105957 C428.6036377 401.50793457 428.6036377 401.50793457 427.5255127 403.92980957 C426.53635402 406.20644462 425.80743624 408.02992949 425.6036377 410.50793457 C426.83223104 412.64016723 428.27274647 414.11495663 430.02941895 415.83215332 C433.38061296 419.3995534 433.54460893 423.76417209 433.9161377 428.44543457 C433.5372702 438.31493278 428.20493604 443.74995984 421.6036377 450.50793457 C420.8302002 451.33164551 420.0567627 452.15535645 419.2598877 453.00402832 C412.59193608 459.95742307 407.15800292 463.86534974 397.4161377 464.82043457 C390.08280978 464.21934212 384.7479463 461.65224317 379.6036377 456.50793457 C375.56621728 456.93442264 372.11353257 458.45827855 368.4161377 460.07043457 C362.81610228 462.50793457 362.81610228 462.50793457 360.6036377 462.50793457 C360.65004395 463.13699707 360.6964502 463.76605957 360.7442627 464.41418457 C361.01054815 470.72895383 360.39464391 475.34241148 356.6036377 480.50793457 C352.15763521 485.24893248 347.84324921 488.22932377 341.22546387 488.79846191 C337.81478967 488.83891243 334.40493148 488.879302 330.99401855 488.87854004 C328.80775331 488.88290142 326.62352919 488.91922321 324.43762207 488.95715332 C315.88909496 489.02775532 309.07189722 488.84680434 302.5802002 482.54309082 C297.97543093 475.82225707 296.27451015 470.61136768 295.6036377 462.50793457 C293.52144721 461.69251026 291.43784009 460.88070268 289.3536377 460.07043457 C287.61340332 459.39174316 287.61340332 459.39174316 285.8380127 458.69934082 C284.77066895 458.30617676 283.7033252 457.9130127 282.6036377 457.50793457 C281.88305176 457.2320752 281.16246582 456.95621582 280.42004395 456.67199707 C278.49640585 456.31757168 278.49640585 456.31757168 276.70910645 457.65246582 C276.07617676 458.20289551 275.44324707 458.7533252 274.7911377 459.32043457 C269.18195519 463.7973932 263.76268629 465.12509393 256.6036377 464.50793457 C247.99232456 463.00471283 243.10375202 457.82008802 237.2286377 451.69543457 C236.34047363 450.80533691 235.45230957 449.91523926 234.53723145 448.99816895 C228.33869393 442.67303498 224.17639026 437.83974122 224.1661377 428.63293457 C224.29711686 422.43107123 225.19742589 418.66591244 228.6036377 413.50793457 C229.44475098 412.8176416 229.44475098 412.8176416 230.30285645 412.11340332 C230.73211426 411.58359863 231.16137207 411.05379395 231.6036377 410.50793457 C231.10656139 406.32714267 229.57679254 402.59363532 228.0411377 398.69543457 C227.58609863 397.53398926 227.13105957 396.37254395 226.66223145 395.17590332 C226.31289551 394.29547363 225.96355957 393.41504395 225.6036377 392.50793457 C224.49974197 392.50650955 223.39584625 392.50508453 222.25849915 392.50361633 C211.85554041 392.48694719 201.45297289 392.44417605 191.05022144 392.375844 C185.70200301 392.34155246 180.35407089 392.31646063 175.0057373 392.31237793 C169.84428315 392.30809967 164.68347512 392.27967587 159.52222252 392.23450279 C157.553095 392.22151272 155.58389021 392.21722544 153.61472511 392.22178078 C150.85616916 392.22667604 148.0995094 392.20064282 145.34118652 392.1673584 C144.1198275 392.18029686 144.1198275 392.18029686 142.87379456 392.1934967 C138.6032222 392.1071087 137.05915806 391.87539623 133.61051941 389.09342957 C130.87072292 385.56370977 130.15326084 382.93375326 130.6036377 378.50793457 C132.63745438 374.44030119 134.3615126 372.12236227 138.6036377 370.50793457 C141.40045166 370.26742554 141.40045166 370.26742554 144.65734863 370.28088379 C145.87831238 370.28103485 147.09927612 370.28118591 148.35723877 370.28134155 C150.32772186 370.29682541 150.32772186 370.29682541 152.3380127 370.31262207 C153.69992871 370.31635415 155.06184742 370.3192002 156.42376709 370.32119751 C160.00111355 370.32881863 163.57829655 370.34845388 167.15557861 370.37060547 C170.8088154 370.39109679 174.4620787 370.40020624 178.11535645 370.41027832 C185.27819123 370.43170135 192.44089152 370.46581875 199.6036377 370.50793457 C199.58007202 369.43479004 199.58007202 369.43479004 199.55603027 368.33996582 C199.49323022 365.06270418 199.45450466 361.78556967 199.4161377 358.50793457 C199.39100098 357.38258301 199.36586426 356.25723145 199.33996582 355.09777832 C199.27288254 347.45028474 199.56603736 341.15305497 204.65441895 335.04699707 C212.3811224 328.50799069 212.3811224 328.50799069 217.6036377 327.50793457 C218.5607666 327.5910791 218.5607666 327.5910791 219.53723145 327.67590332 C222.07280985 327.77655955 223.34723282 327.72773364 225.6036377 326.50793457 C228.46395717 321.8874185 231.89300111 315.82982662 231.4083252 310.26574707 C230.5244797 308.33501661 229.4964174 306.84940251 228.1661377 305.19543457 C223.77248056 299.17166696 223.38346228 293.69665904 223.82629395 286.44934082 C225.98490375 278.28133486 232.13869131 272.47922763 237.9786377 266.69543457 C238.70824707 265.94584473 239.43785645 265.19625488 240.1895752 264.4239502 C246.00822876 258.61049185 250.88100619 255.1013423 259.4161377 255.00793457 C267.47075979 255.19995191 273.36714331 258.67465142 279.6036377 263.50793457 C280.33969238 263.1702002 281.07574707 262.83246582 281.83410645 262.48449707 C282.80992676 262.03848145 283.78574707 261.59246582 284.7911377 261.13293457 C285.75406738 260.6920752 286.71699707 260.25121582 287.70910645 259.79699707 C290.31895561 258.63471606 292.94339728 257.54868676 295.6036377 256.50793457 C295.60750488 255.59914551 295.60750488 255.59914551 295.6114502 254.67199707 C295.94588007 247.42601642 297.96967283 242.12848551 302.6036377 236.50793457 C310.50967547 229.89174941 318.35870922 230.27156458 328.2911377 230.19543457 C329.53314941 230.16643066 330.77516113 230.13742676 332.05480957 230.10754395 C340.64979085 230.04833104 347.19386872 230.87116349 353.94348145 236.43762207 C359.29155201 242.94945371 360.6100868 248.29008985 361.6036377 256.50793457 C364.01515327 257.5427267 366.43158238 258.56087177 368.8536377 259.57043457 C369.53555176 259.86498535 370.21746582 260.15953613 370.92004395 260.4630127 C374.61490957 261.98759317 376.80766975 262.81392069 380.6036377 261.50793457 C382.44542406 260.37335809 382.44542406 260.37335809 384.1661377 259.00793457 C389.82815427 254.6699976 392.54205695 255.50793457 400.6036377 255.50793457 C400.6036377 222.17793457 400.6036377 188.84793457 400.6036377 154.50793457 C257.3836377 154.50793457 114.1636377 154.50793457 -33.3963623 154.50793457 C-51.82888156 268.68709711 -51.82888156 268.68709711 -22.3963623 363.50793457 C-17.07904652 368.04462315 -12.93752155 369.62699922 -5.98474121 369.66564941 C-5.33884537 369.67073013 -4.69294952 369.67581085 -4.02748108 369.68104553 C-2.62629166 369.69173592 -1.2250853 369.70036132 0.17612839 369.70716476 C2.3957582 369.71897145 4.61519499 369.7384286 6.83474731 369.76028442 C13.14501506 369.82184161 19.45526227 369.87593171 25.76574707 369.90930176 C29.62730752 369.93027052 33.48851442 369.96558995 37.34987259 370.01005936 C38.81939147 370.02420096 40.28897288 370.03293765 41.75855637 370.03611374 C43.81715534 370.04103389 45.87481927 370.06421761 47.93322754 370.09143066 C49.68837173 370.10356094 49.68837173 370.10356094 51.47897339 370.11593628 C55.75603012 370.65250558 58.35237079 372.2998148 61.4161377 375.25793457 C63.13232095 378.50965021 62.98525858 380.88253619 62.6036377 384.50793457 C60.95224464 388.04663397 59.8875854 389.3186361 56.6036377 391.50793457 C53.54553223 391.77536011 53.54553223 391.77536011 49.7364502 391.79846191 C49.04167068 391.80517914 48.34689117 391.81189636 47.63105774 391.81881714 C45.33017844 391.83783621 43.02959077 391.84172458 40.7286377 391.84387207 C39.12259808 391.85030207 37.51655963 391.85703059 35.91052246 391.86404419 C32.53785493 391.87603009 29.16528987 391.87972415 25.79260254 391.87854004 C21.49669293 391.87833786 17.20145246 391.90552778 12.90570068 391.94008446 C9.58369004 391.96247428 6.26183663 391.96637376 2.9397583 391.96532059 C1.35790726 391.96766273 -0.22394904 391.97640708 -1.8057251 391.99198532 C-16.38235485 392.12198819 -27.19879514 389.32707782 -38.3963623 379.50793457 C-50.40335357 367.35552991 -54.70838231 352.67822682 -54.66378784 336.05439758 C-54.66831895 334.81125107 -54.67285007 333.56810456 -54.67751849 332.28728694 C-54.68795925 328.85290999 -54.68949339 325.41874313 -54.68712974 321.98436534 C-54.68672042 318.2739144 -54.69777172 314.56349431 -54.70724487 310.85305786 C-54.72383149 303.58930393 -54.72935338 296.32558247 -54.73046963 289.06181119 C-54.73142129 283.15440455 -54.73553751 277.24700859 -54.74187088 271.33960533 C-54.75947757 254.57477255 -54.76871075 237.80996535 -54.76720993 221.04512326 C-54.76713002 220.14202824 -54.76705011 219.23893322 -54.76696777 218.30847168 C-54.76684513 216.95216649 -54.76684513 216.95216649 -54.76672001 215.5684612 C-54.76590746 200.92132571 -54.78503874 186.27429314 -54.81324451 171.62718741 C-54.84200684 156.57170883 -54.85578293 141.51628039 -54.85405695 126.46077365 C-54.85339417 118.01469143 -54.85883741 109.56871708 -54.88041306 101.12265968 C-54.89866908 93.93024546 -54.9029361 86.737988 -54.88939421 79.54556058 C-54.88288651 75.88007739 -54.88266695 72.21489457 -54.90010071 68.54944038 C-54.9188563 64.56486553 -54.9062197 60.5809791 -54.89083862 56.59638977 C-54.90112575 55.45297444 -54.91141288 54.3095591 -54.92201173 53.13149482 C-54.79727762 38.43904498 -49.46594476 24.16134737 -39.3651123 13.35168457 C-27.61778696 2.35022115 -15.65808033 -0.09597652 0 0 Z M-25.79089355 30.37512207 C-45.74848264 56.88812362 -33.3963623 119.0461292 -33.3963623 133.50793457 C109.8236377 133.50793457 253.0436377 133.50793457 400.6036377 133.50793457 C407.05515734 85.87236685 407.05515734 85.87236685 390.86535645 28.58215332 C385.4022043 23.7004453 380.19684057 21.13407595 372.76568794 21.12761784 C372.09931916 21.12295792 371.43295039 21.118298 370.74638861 21.11349687 C368.51542668 21.10155427 366.28507459 21.11093903 364.05410767 21.12025452 C362.43770537 21.11608126 360.821306 21.11060379 359.20491207 21.10393471 C354.76443781 21.08946017 350.32414885 21.09373109 345.88366437 21.10110152 C341.09418821 21.10582594 336.30475255 21.09332974 331.51528931 21.08308411 C322.13266682 21.06587629 312.75011125 21.06506024 303.36747707 21.07029701 C295.74182305 21.0743364 288.11618882 21.0728979 280.49053574 21.06754875 C279.40571685 21.06680033 278.32089797 21.06605191 277.20320579 21.06528081 C274.99947684 21.06374935 272.79574789 21.062211 270.59201895 21.06066584 C249.9193792 21.04693352 229.24677728 21.05238354 208.57413839 21.06385105 C189.65883031 21.07378331 170.74362006 21.06084417 151.82832707 21.03691686 C132.40995521 21.01253809 112.99162893 21.00291504 93.57324207 21.00956959 C82.66976189 21.01306464 71.76635695 21.01081091 60.86288834 20.99331856 C51.58055243 20.97861184 42.29834473 20.97794107 33.01601137 20.99538947 C28.27982507 21.00391461 23.54386796 21.00601211 18.80769348 20.99073792 C14.4712062 20.97692583 10.1351452 20.98160902 5.79868279 21.00097715 C4.23076374 21.00474819 2.66281082 21.00178342 1.09492184 20.9913655 C-9.99121548 20.92294693 -17.86166098 21.99227207 -25.79089355 30.37512207 Z M317.6036377 252.50793457 C317.39993453 255.60120479 317.25753417 258.68670086 317.1739502 261.78527832 C316.96765565 266.16044173 316.27144135 269.01330557 313.6036377 272.50793457 C310.02693352 274.80069366 306.25107552 275.94012833 302.2286377 277.19543457 C296.21517353 279.09994816 290.83658401 281.81257267 285.3873291 284.95397949 C280.32600848 287.69526061 277.2183494 287.99149661 271.6036377 286.50793457 C268.7755127 284.44152832 268.7755127 284.44152832 266.3536377 281.94543457 C263.99725674 279.46033407 263.99725674 279.46033407 261.6036377 277.50793457 C257.02441102 277.50793457 256.094241 278.47888241 252.93762207 281.57824707 C252.39428223 282.13254395 251.85094238 282.68684082 251.2911377 283.25793457 C250.72846191 283.7967627 250.16578613 284.33559082 249.58605957 284.89074707 C247.77179511 286.65091394 247.77179511 286.65091394 245.6036377 289.50793457 C246.04141324 293.09237996 247.43113136 294.64491933 250.0411377 297.07043457 C253.46106089 300.27616634 255.41662115 302.40453697 256.2286377 307.19543457 C256.12779052 312.85204443 253.41796934 317.33515152 250.81018066 322.1932373 C247.67595622 328.09526762 245.65013096 333.9880401 243.8067627 340.39855957 C242.46900653 343.85587745 241.67969503 345.43222108 238.6036377 347.50793457 C235.70871721 348.08930071 232.86263493 348.15857264 229.9161377 348.19543457 C224.85802109 347.8627493 224.85802109 347.8627493 220.6036377 349.50793457 C220.50482973 350.98446121 220.47284524 352.46560693 220.4708252 353.94543457 C220.46953613 354.84004395 220.46824707 355.73465332 220.46691895 356.65637207 C220.47078613 357.5973877 220.47465332 358.53840332 220.4786377 359.50793457 C220.47477051 360.4489502 220.47090332 361.38996582 220.46691895 362.35949707 C220.46820801 363.25410645 220.46949707 364.14871582 220.4708252 365.07043457 C220.47195313 365.89672363 220.47308105 366.7230127 220.47424316 367.57434082 C220.39098963 369.51472496 220.39098963 369.51472496 221.6036377 370.50793457 C224.69690791 370.71163773 227.78240398 370.85403809 230.88098145 370.93762207 C235.26297154 371.1442385 238.24757263 371.61600617 241.6036377 374.50793457 C242.81990229 376.88808874 243.74147216 379.00928598 244.6036377 381.50793457 C245.08008838 382.7970384 245.55665234 384.08610037 246.0333252 385.37512207 C246.26898193 386.02883789 246.50463867 386.68255371 246.74743652 387.3560791 C248.95108352 393.46448557 251.32106874 399.07807564 254.6270752 404.68762207 C256.51041669 408.19817062 257.02308637 411.08413935 255.9005127 414.89465332 C253.91017978 418.90529404 250.70023775 421.36681757 247.40441895 424.32434082 C246.81016113 425.04492676 246.21590332 425.7655127 245.6036377 426.50793457 C245.95260662 429.82313932 247.19678298 431.46244456 249.54504395 433.74230957 C250.12834473 434.31594238 250.71164551 434.8895752 251.31262207 435.48059082 C252.2301123 436.36037598 252.2301123 436.36037598 253.1661377 437.25793457 C253.78166504 437.85992676 254.39719238 438.46191895 255.03137207 439.08215332 C256.54878582 440.56427838 258.07534366 442.03703127 259.6036377 443.50793457 C260.07897949 443.09841553 260.55432129 442.68889648 261.04406738 442.26696777 C262.25127638 441.23034266 263.4645662 440.20078277 264.6817627 439.17590332 C266.57316476 437.57911328 266.57316476 437.57911328 268.0880127 435.99621582 C270.80239012 433.33521099 272.7520344 432.47681913 276.4786377 431.69543457 C281.97765667 431.99068391 286.539387 434.75046405 291.28967285 437.30285645 C297.18878334 440.44352907 303.06792109 442.42129229 309.4942627 444.20715332 C313.24947111 445.77811362 314.60364236 446.96577415 316.6036377 450.50793457 C317.0194608 453.37060793 317.25255366 455.89757175 317.2911377 458.75793457 C316.99272922 463.51361909 316.99272922 463.51361909 318.6036377 467.50793457 C320.16536514 467.5947906 321.73093114 467.61495677 323.29504395 467.60559082 C324.23928223 467.60236816 325.18352051 467.59914551 326.15637207 467.5958252 C327.14959473 467.58744629 328.14281738 467.57906738 329.1661377 467.57043457 C330.16322754 467.56592285 331.16031738 467.56141113 332.18762207 467.5567627 C334.65968618 467.54493464 337.13163287 467.52845306 339.6036377 467.50793457 C339.64102051 466.41094238 339.67840332 465.3139502 339.71691895 464.18371582 C339.78260423 462.729256 339.84905068 461.27483041 339.9161377 459.82043457 C339.93869629 459.0992041 339.96125488 458.37797363 339.98449707 457.6348877 C340.20724847 453.2001099 340.65486548 450.04120729 343.6036377 446.50793457 C345.7755127 445.35559082 345.7755127 445.35559082 348.3536377 444.57043457 C353.08604506 443.01604013 357.72638631 441.34719206 362.3536377 439.50793457 C363.56535645 439.03355957 364.7770752 438.55918457 366.0255127 438.07043457 C368.62782601 436.93405321 370.8924271 435.80006861 373.31066895 434.36340332 C376.52214564 432.5538524 378.83399095 431.74072344 382.5489502 431.91418457 C387.32104718 433.29319358 391.0106327 437.49363899 394.02160645 441.30090332 C395.58050488 442.73997177 395.58050488 442.73997177 397.9317627 442.53137207 C401.51223007 441.1599065 403.76325921 438.85597395 406.3536377 436.13293457 C406.84734863 435.63793457 407.34105957 435.14293457 407.84973145 434.63293457 C410.14652659 432.27950612 411.5507772 430.66651606 412.6036377 427.50793457 C411.89336426 426.8092627 411.18309082 426.11059082 410.45129395 425.39074707 C409.53219238 424.48066895 408.61309082 423.57059082 407.6661377 422.63293457 C406.74961426 421.7280127 405.83309082 420.82309082 404.88879395 419.89074707 C401.62852786 416.49115337 401.27560319 414.40734313 401.3404541 409.68811035 C401.7860355 405.99697685 403.47676851 403.13956448 405.2911377 399.94543457 C408.85594836 393.32148242 411.32402025 386.8385445 413.4005127 379.61730957 C414.92417428 375.67953482 416.8219298 373.39878852 420.6036377 371.50793457 C423.31625886 371.27566997 426.01136895 371.08857222 428.7286377 370.94543457 C429.85979004 370.88065918 429.85979004 370.88065918 431.01379395 370.8145752 C432.87685657 370.70845137 434.74022294 370.60768456 436.6036377 370.50793457 C436.63251583 367.02878516 436.65039457 363.54966626 436.6661377 360.07043457 C436.6745166 359.07721191 436.68289551 358.08398926 436.69152832 357.06066895 C436.69475098 356.11643066 436.69797363 355.17219238 436.70129395 354.19934082 C436.70653076 353.32479248 436.71176758 352.45024414 436.71716309 351.54919434 C436.83148578 349.51353251 436.83148578 349.51353251 435.6036377 348.50793457 C432.29531403 348.33798644 428.99406662 348.21081805 425.6817627 348.1661377 C422.25964754 348.03088866 419.7977125 347.61192231 416.7677002 345.98840332 C413.84387353 342.63708575 412.91899385 339.36201774 411.7286377 335.13293457 C409.50071912 327.77723145 406.69613119 321.30826394 402.9239502 314.62121582 C401.38171774 310.98464995 401.25535562 308.42262506 401.6036377 304.50793457 C404.30286281 299.32542235 408.4063289 295.49301989 412.6036377 291.50793457 C408.19520333 286.21781333 403.52803976 281.31985029 398.6036377 276.50793457 C395.1470198 277.9804848 393.08001846 279.95476028 390.4786377 282.63293457 C387.39948226 285.35776256 385.19630163 287.15758348 381.0411377 287.50793457 C375.41235525 287.04613044 370.75863714 284.35046378 365.86828613 281.71813965 C359.95652323 278.55092453 354.0369 276.50369829 347.61535645 274.61340332 C343.92103914 273.25738283 342.34040492 271.98146902 340.6036377 268.50793457 C340.33922958 265.06695674 340.15903857 261.63244956 339.99816895 258.18566895 C340.13724483 254.54304003 340.13724483 254.54304003 338.6036377 251.50793457 C337.12711105 251.4091266 335.64596534 251.37714212 334.1661377 251.37512207 C333.27152832 251.37383301 332.37691895 251.37254395 331.4552002 251.37121582 C330.04367676 251.3770166 330.04367676 251.3770166 328.6036377 251.38293457 C327.66262207 251.37906738 326.72160645 251.3752002 325.7520752 251.37121582 C324.41016113 251.37314941 324.41016113 251.37314941 323.0411377 251.37512207 C321.8017041 251.37681396 321.8017041 251.37681396 320.53723145 251.37854004 C318.5968473 251.2952865 318.5968473 251.2952865 317.6036377 252.50793457 Z " fill="#000000" transform="translate(54.3963623046875,11.4920654296875)"/>
<path d="M0 0 C0.86322876 -0.00860046 1.72645752 -0.01720093 2.61584473 -0.02606201 C3.55508789 -0.03032196 4.49433105 -0.03458191 5.46203613 -0.03897095 C6.45771606 -0.04714844 7.453396 -0.05532593 8.47924805 -0.06375122 C11.77623907 -0.08857185 15.07318701 -0.10511629 18.37023926 -0.11953735 C19.49897964 -0.12486103 20.62772003 -0.13018471 21.79066467 -0.13566971 C27.76965658 -0.16239179 33.74862771 -0.18176637 39.72766113 -0.19619751 C44.66274643 -0.20951451 49.5974161 -0.23732791 54.53234863 -0.27822876 C60.50222153 -0.32770266 66.47171859 -0.35233724 72.44178772 -0.35942459 C74.70943809 -0.36611339 76.97708087 -0.38127305 79.24461365 -0.4053154 C93.74090098 -0.55020036 105.10715236 -0.64304034 116.65148926 9.15390015 C123.19264189 16.64285245 127.4958426 25.77316777 126.99523926 35.9312439 C125.28528605 46.98764587 121.1773163 56.0486692 112.27648926 63.02890015 C104.96286923 67.62172865 97.64132548 68.59889056 89.14978027 68.55795288 C88.14040405 68.56481613 87.13102783 68.57167938 86.09106445 68.57875061 C82.7790287 68.59694109 79.46747014 68.59319217 76.15539551 68.5874939 C73.83808744 68.59205929 71.52078072 68.59736593 69.20347595 68.6033783 C64.35593146 68.61229412 59.50855185 68.60990345 54.66101074 68.59994507 C48.4662567 68.5884556 42.27207272 68.60867499 36.07739353 68.63786221 C31.29453449 68.65625691 26.51181126 68.65592521 21.7289257 68.65022469 C19.44570046 68.65007188 17.16246576 68.65608206 14.87927437 68.66851616 C11.68002236 68.6834864 8.48181339 68.67270423 5.28259277 68.65560913 C3.8849897 68.67011108 3.8849897 68.67011108 2.45915222 68.68490601 C-8.1800439 68.56657962 -15.98153965 64.65793117 -23.34851074 57.15390015 C-29.63167729 50.69620119 -31.75444685 43.00934343 -31.84851074 34.15390015 C-31.66942855 23.22226577 -28.36844469 16.24995881 -20.86022949 8.35702515 C-14.93625705 3.16088135 -7.89687928 0.05885543 0 0 Z M-8.72351074 26.84140015 C-10.69417933 30.85853228 -11.21554859 33.76616316 -10.34851074 38.15390015 C-8.07106443 42.6244429 -5.88434658 45.06095691 -1.34851074 47.15390015 C1.77807019 47.59128717 4.87514006 47.57408937 8.02819824 47.55795288 C8.96538696 47.56481613 9.90257568 47.57167938 10.86816406 47.57875061 C13.96145849 47.59702915 17.05424624 47.59317952 20.14758301 47.5874939 C22.30082871 47.5920552 24.45407294 47.59736062 26.60731506 47.6033783 C31.11892615 47.6123115 35.63036024 47.60988383 40.14196777 47.59994507 C45.92023341 47.58845564 51.69788792 47.60866579 57.47607327 47.63786221 C61.9225095 47.65621858 66.36879913 47.65593283 70.81526375 47.65022469 C72.94549479 47.6500714 75.07573572 47.65612165 77.20593071 47.66851616 C80.18613772 47.68341323 83.16521384 47.67275805 86.14538574 47.65560913 C87.46177788 47.67011108 87.46177788 47.67011108 88.80476379 47.68490601 C94.24493161 47.61943895 97.31823326 46.74656626 101.65148926 43.15390015 C104.39441299 40.25988316 105.10201296 38.24937336 105.15148926 34.27890015 C105.04568563 30.6921572 104.65453782 28.4771647 102.40148926 25.65390015 C98.8739047 22.44700509 96.35299968 20.90731292 91.5663147 20.89320374 C90.35943497 20.88257652 90.35943497 20.88257652 89.12817383 20.87173462 C88.2543103 20.87421204 87.38044678 20.87668945 86.48010254 20.87924194 C85.55281342 20.87413101 84.62552429 20.86902008 83.6701355 20.86375427 C80.60395864 20.84985137 77.5380064 20.85081572 74.47180176 20.8531189 C72.3395479 20.84923209 70.20729481 20.84489745 68.07504272 20.84013367 C63.60456839 20.83266975 59.13417303 20.8329638 54.66369629 20.83822632 C48.93819376 20.84401828 43.213015 20.82709724 37.48756599 20.80388165 C33.0831819 20.78914023 28.67887568 20.78827322 24.27447128 20.79139137 C22.16378005 20.79087827 20.05308445 20.78564267 17.94241714 20.77557945 C14.98862005 20.76322596 12.03545227 20.77000065 9.08166504 20.78158569 C8.21184998 20.77394196 7.34203491 20.76629822 6.44586182 20.75842285 C0.06148137 20.81369389 -4.32585581 21.86510641 -8.72351074 26.84140015 Z " fill="#000000" transform="translate(297.3485107421875,54.846099853515625)"/>
<path d="M0 0 C10.12064771 8.32919096 17.72313861 17.48750384 22.43701172 29.79882812 C22.75798828 30.60449219 23.07896484 31.41015625 23.40966797 32.24023438 C28.45276657 47.22879255 26.28862006 64.84781835 19.74951172 78.92382812 C11.50778618 94.49153191 -1.64054172 106.01811442 -18.56298828 111.23632812 C-37.63898703 115.78944717 -54.77492026 112.48124875 -71.56298828 102.79882812 C-84.97143644 94.10955446 -93.33096075 80.81365783 -97.37548828 65.54882812 C-100.79000026 48.92761177 -98.18673775 32.53948286 -89.66845703 17.90039062 C-79.79940912 3.36231263 -65.93134053 -6.44977216 -48.68798828 -10.51367188 C-32.33730098 -13.19539288 -13.42847627 -10.31991616 0 0 Z M-69.22314453 25.86523438 C-72.78334639 30.89500358 -74.99521433 35.85532687 -76.56298828 41.79882812 C-76.78986328 42.62382812 -77.01673828 43.44882812 -77.25048828 44.29882812 C-78.66064257 55.5800624 -76.11168187 66.47701436 -69.31298828 75.74023438 C-62.52186608 83.72889822 -54.05899422 89.82959624 -43.56298828 91.79882812 C-31.64072247 92.73601655 -20.7777764 91.24865704 -11.36767578 83.41992188 C-10.77212891 82.88496094 -10.17658203 82.35 -9.56298828 81.79882812 C-8.63873047 81.01185547 -8.63873047 81.01185547 -7.69580078 80.20898438 C-0.56300025 73.70374784 3.94550035 64.46933954 4.65576172 54.83007812 C5.00305407 42.44331749 1.8860398 31.85322474 -6.60205078 22.56835938 C-15.21480191 14.45776512 -24.73660303 10.42998823 -36.43798828 9.48632812 C-48.96645871 9.88484806 -61.39119205 16.11675706 -69.22314453 25.86523438 Z " fill="#000000" transform="translate(419.56298828125,320.201171875)"/>
<path d="M0 0 C7.58732103 5.12965772 12.07095045 12.38157239 14.35546875 21.1796875 C16.16459236 30.96403103 14.37652349 39.91731655 9.19921875 48.40234375 C4.36226024 55.16690206 -2.79951938 61.25753173 -11.17578125 62.71484375 C-23.49863137 63.62812387 -33.28528605 62.84301461 -43.09765625 54.74609375 C-50.49109002 47.51942916 -53.59939824 39.28561002 -54.48828125 29.15234375 C-54.32854296 19.90527161 -50.84790508 10.19464472 -44.17578125 3.71484375 C-41.32365719 1.39716223 -38.3890534 -0.50677632 -35.17578125 -2.28515625 C-34.5725 -2.62675781 -33.96921875 -2.96835937 -33.34765625 -3.3203125 C-22.50622133 -8.38750491 -9.8583121 -5.82295275 0 0 Z M-30.98828125 21.58984375 C-32.57554273 24.4302064 -33.04773321 26.44961878 -33.17578125 29.71484375 C-31.66167604 34.33684914 -29.97147564 37.63084205 -26.17578125 40.71484375 C-21.70151793 42.20626486 -17.85664102 42.45754923 -13.48828125 40.52734375 C-9.62222616 37.49719246 -7.54565971 35.07106477 -6.23828125 30.27734375 C-6.16477704 26.08760371 -6.86228381 24.18508991 -9.17578125 20.71484375 C-12.58445686 17.63872186 -14.82808616 15.84442982 -19.42578125 15.40234375 C-24.61666424 15.83491733 -27.42290687 17.90152542 -30.98828125 21.58984375 Z " fill="#000000" transform="translate(113.17578125,60.28515625)"/>
<path d="M0 0 C7.76162039 5.8950511 12.57191123 13.2378578 14.58984375 22.79296875 C15.95523926 33.67010828 13.14436292 42.55321324 7.3125 51.625 C-0.37909764 59.52447866 -8.96666418 63.25875736 -19.875 63.4375 C-30.36394222 63.33861597 -37.42157687 60.42720975 -45.0234375 53.21484375 C-52.02524123 45.36894905 -54.44572827 36.5918593 -54.24609375 26.24609375 C-53.55707631 17.15762568 -49.44912221 9.32344079 -42.92578125 2.984375 C-30.60390159 -7.25160182 -13.80809261 -8.45919016 0 0 Z M-30.25 21.5625 C-33.18121904 25.64526937 -33.17550557 27.85309913 -32.578125 32.7421875 C-31.39381932 37.3673813 -27.77589719 39.48273521 -24 42 C-19.20855735 42.47128944 -16.9710053 42.51298393 -12.6875 40.25 C-8.44004928 36.88315362 -8.44004928 36.88315362 -6.68359375 31.95703125 C-6.39969206 26.48963422 -7.27806496 23.22489923 -11 19 C-13.97106942 16.59102479 -15.6745346 16.03487129 -19.5 15.625 C-24.58420873 16.16973665 -26.90825476 17.75662347 -30.25 21.5625 Z " fill="#000000" transform="translate(201,60)"/>
<path d="M0 0 C3.71489768 2.99513626 6.84232494 6.43203492 10 10 C10.61875 10.68964844 11.2375 11.37929687 11.875 12.08984375 C13.00120991 13.3646508 14.11714493 14.64860831 15.22265625 15.94140625 C17.27163554 18.31461963 19.38510766 20.62288764 21.5 22.9375 C34.42383403 37.25551476 34.42383403 37.25551476 34.265625 46.484375 C33.57206257 53.05281924 27.56042261 57.82792309 23.29296875 62.4921875 C21.33138085 64.63756984 19.40590804 66.80531801 17.5 69 C1.64568345 87.17715827 1.64568345 87.17715827 -2 89 C-9.75862069 89.43103448 -9.75862069 89.43103448 -13 87 C-15.30467552 84.11915561 -15.96940098 82.24042089 -16.4375 78.5625 C-15.61495157 71.86460562 -10.66762538 67.34389586 -6.1875 62.625 C-5.12052581 61.48230087 -4.05411747 60.33907312 -2.98828125 59.1953125 C-2.21991943 58.37401855 -2.21991943 58.37401855 -1.43603516 57.53613281 C0.43265156 55.53719082 2.29102555 53.53088539 4.125 51.5 C4.64320313 50.9328125 5.16140625 50.365625 5.6953125 49.78125 C7.25890558 47.64652412 8.10782635 45.48109244 9 43 C8.03900391 41.948125 8.03900391 41.948125 7.05859375 40.875 C-2.88535913 29.96777299 -2.88535913 29.96777299 -6.26171875 26.02734375 C-7.55384119 24.52035151 -8.87347436 23.03685925 -10.20703125 21.56640625 C-16.51686691 14.30622756 -16.51686691 14.30622756 -16.8125 9.75 C-15.78443819 5.00509935 -14.48745859 3.32525121 -11 0 C-6.98088781 -1.33970406 -3.93039369 -1.5137327 0 0 Z " fill="#000000" transform="translate(214,230)"/>
<path d="M0 0 C2.7568355 1.69651415 3.69705733 2.95851082 4.59765625 6.0546875 C5.31723066 10.20446612 5.49222529 12.13774117 3.33203125 15.921875 C0.94276426 19.07554734 -1.59906729 22.00306358 -4.3125 24.875 C-5.28840996 25.92387519 -6.26366988 26.97335556 -7.23828125 28.0234375 C-7.70959473 28.5297168 -8.1809082 29.03599609 -8.66650391 29.55761719 C-11.51633058 32.64014666 -14.30667734 35.77972291 -17 39 C-17.86625 39.97453125 -17.86625 39.97453125 -18.75 40.96875 C-20.21796277 42.87951847 -20.21796277 42.87951847 -19.76025391 44.91503906 C-18.88725601 47.30919514 -17.85027788 48.56113485 -16.0859375 50.390625 C-15.49272705 51.01404785 -14.8995166 51.6374707 -14.28833008 52.27978516 C-13.65693115 52.92995605 -13.02553223 53.58012695 -12.375 54.25 C-11.09429747 55.59563637 -9.81434136 56.94198356 -8.53515625 58.2890625 C-7.92172363 58.93133789 -7.30829102 59.57361328 -6.67626953 60.23535156 C4.57529252 72.08013608 4.57529252 72.08013608 5.5 78.4375 C4.83624442 83.16675851 3.34318209 84.65681791 0 88 C-3.10953379 89.5547669 -5.56266761 89.28644437 -9 89 C-13.69570448 86.65214776 -16.6932152 83.287043 -20.015625 79.33984375 C-22.28227568 76.66715919 -24.63380258 74.08489143 -27 71.5 C-34.73871006 62.99914425 -34.73871006 62.99914425 -37.39453125 59.8828125 C-38.48707308 58.60153473 -39.61125915 57.34672525 -40.76171875 56.1171875 C-44.82370126 51.4397531 -45.65573302 47.8683197 -45.6015625 41.7109375 C-44.32384049 35.95289157 -40.10679288 31.83438227 -36.1875 27.625 C-33.23392029 24.42528865 -30.29224675 21.22579474 -27.4375 17.9375 C-9.70246838 -2.44517852 -9.70246838 -2.44517852 0 0 Z " fill="#000000" transform="translate(102,230)"/>
<path d="M0 0 C3.49890004 2.11391877 4.70578686 3.11736059 6 7 C6.27750071 12.24560517 5.5350855 16.95779507 4.3034668 22.02734375 C4.12296783 22.79740753 3.94246887 23.56747131 3.75650024 24.36087036 C3.16185739 26.88832682 2.55589251 29.41290667 1.94921875 31.9375 C1.52991618 33.70422598 1.11112644 35.47107375 0.69282532 37.23803711 C-0.18405988 40.93432178 -1.06644306 44.6292371 -1.95288086 48.32324219 C-3.08560458 53.04509355 -4.20565921 57.7698393 -5.32172871 62.49565125 C-6.18436163 66.14286393 -7.05318498 69.78858 -7.92391014 73.43386841 C-8.3391021 75.17487496 -8.75251869 76.91630594 -9.1640873 78.65817261 C-9.74163538 81.09786233 -10.32737555 83.53544515 -10.9152832 85.97265625 C-11.08216141 86.68455109 -11.24903961 87.39644592 -11.42097473 88.12991333 C-14.0941021 99.0941021 -14.0941021 99.0941021 -17.875 102.875 C-20.43478733 104.23018153 -22.08474827 104.8644069 -25 105 C-28.48830691 103.85727877 -31.16099006 102.73075059 -33.9375 100.3125 C-36.627716 94.457324 -34.67572493 87.46066228 -33.22753906 81.46020508 C-33.03889282 80.6477684 -32.85024658 79.83533173 -32.65588379 78.99827576 C-32.03501662 76.33643277 -31.40099534 73.67794674 -30.765625 71.01953125 C-30.32640124 69.15973727 -29.88758522 67.29984696 -29.44915771 65.43986511 C-28.53048761 61.55258574 -27.60492019 57.6670267 -26.67480469 53.7824707 C-25.48496528 48.80949208 -24.31551908 43.83196878 -23.15155411 38.85287952 C-22.25146724 35.01505617 -21.33909055 31.18023388 -20.42314911 27.34616661 C-19.98683583 25.51196929 -19.5546906 23.67677519 -19.12683868 21.84058571 C-18.52725881 19.27436911 -17.91084685 16.71276298 -17.29003906 14.15161133 C-17.1174054 13.39669403 -16.94477173 12.64177673 -16.76690674 11.86398315 C-15.65525052 7.37274644 -14.22109533 4.33673673 -11 1 C-7.53984865 -0.73007568 -3.78327445 -0.4835273 0 0 Z " fill="#000000" transform="translate(167,222)"/>
<path d="M0 0 C3.5420773 3.09931764 4.84372778 4.88656044 5.5 9.5625 C4.97300076 13.18561975 4.22264703 15.11879089 2 18 C-2.01858595 20.6790573 -5.27641721 20.69610694 -10 20 C-12.87029869 18.20606332 -14.49131638 17.01736724 -16 14 C-16.42074378 10.94059163 -16.47999423 8.0540292 -16 5 C-11.6035991 -0.70343901 -6.91186866 -2.16500166 0 0 Z " fill="#000000" transform="translate(157,383)"/>
</svg>
